HIERARCHY
ROOT Hips
{
	OFFSET 0.000000 89.005402 0.000000
	CHANNELS 6 Xposition Yposition Zposition Xrotation Yrotation Zrotation
	JOINT Spine
	{
		OFFSET 0.116900 10.681000 0.373400
		CHANNELS 3 Xrotation Yrotation Zrotation
		JOINT Spine1
		{
			OFFSET 0.000000 13.840401 0.053500
			CHANNELS 3 Xrotation Yrotation Zrotation
			JOINT Spine2
			{
				OFFSET 0.000000 14.712700 -0.366200
				CHANNELS 3 Xrotation Yrotation Zrotation
				JOINT Neck
				{
					OFFSET 0.000000 35.415497 -3.314200
					CHANNELS 3 Xrotation Yrotation Zrotation
					JOINT Head
					{
						OFFSET 0.000000 16.899200 1.218300
						CHANNELS 3 Xrotation Yrotation Zrotation
						JOINT HeadTop_End
						{
							OFFSET 0.000000 22.206207 2.192500
							CHANNELS 3 Xrotation Yrotation Zrotation
							End Site
							{
								OFFSET 0.000000 22.314178 0.000000
							}
						}
					}
				}
				JOINT LeftShoulder
				{
					OFFSET 12.896400 26.716293 -4.548400
					CHANNELS 3 Xrotation Yrotation Zrotation
					JOINT LeftArm
					{
						OFFSET 19.027000 -4.857010 -1.718400
						CHANNELS 3 Xrotation Yrotation Zrotation
						JOINT LeftForeArm
						{
							OFFSET 24.179897 0.000000 0.000000
							CHANNELS 3 Xrotation Yrotation Zrotation
							JOINT LeftHand
							{
								OFFSET 27.156403 0.000000 0.000000
								CHANNELS 3 Xrotation Yrotation Zrotation
								JOINT LeftHandIndex1
								{
									OFFSET 16.441200 0.000000 0.000000
									CHANNELS 3 Xrotation Yrotation Zrotation
									JOINT LeftHandIndex2
									{
										OFFSET 4.821899 0.000000 0.000000
										CHANNELS 3 Xrotation Yrotation Zrotation
										JOINT LeftHandIndex3
										{
											OFFSET 6.386497 0.000000 0.000000
											CHANNELS 3 Xrotation Yrotation Zrotation
											JOINT LeftHandIndex4
											{
												OFFSET 5.188988 0.000000 0.000000
												CHANNELS 3 Xrotation Yrotation Zrotation
												End Site
												{
													OFFSET -0.178703 5.185913 0.000177
												}
											}
										}
									}
								}
								JOINT LeftHandThumb1
								{
									OFFSET 6.534897 -5.032593 5.900300
									CHANNELS 3 Xrotation Yrotation Zrotation
									JOINT LeftHandThumb2
									{
										OFFSET 3.818176 -2.204422 2.204423
										CHANNELS 3 Xrotation Yrotation Zrotation
										JOINT LeftHandThumb3
										{
											OFFSET 3.252098 -1.877594 1.877601
											CHANNELS 3 Xrotation Yrotation Zrotation
											JOINT LeftHandThumb4
											{
												OFFSET 5.251778 -3.032120 3.032117
												CHANNELS 3 Xrotation Yrotation Zrotation
												End Site
												{
													OFFSET 0.000023 6.780014 0.000000
												}
											}
										}
									}
								}
							}
						}
					}
				}
				JOINT RightShoulder
				{
					OFFSET -12.896300 26.716293 -4.548400
					CHANNELS 3 Xrotation Yrotation Zrotation
					JOINT RightArm
					{
						OFFSET -19.027000 -4.857010 -1.718400
						CHANNELS 3 Xrotation Yrotation Zrotation
						JOINT RightForeArm
						{
							OFFSET -24.179897 0.000000 0.000000
							CHANNELS 3 Xrotation Yrotation Zrotation
							JOINT RightHand
							{
								OFFSET -27.156403 0.000000 0.000000
								CHANNELS 3 Xrotation Yrotation Zrotation
								JOINT RightHandThumb1
								{
									OFFSET -6.591202 -4.852203 5.988100
									CHANNELS 3 Xrotation Yrotation Zrotation
									JOINT RightHandThumb2
									{
										OFFSET -3.818176 -2.204422 2.204423
										CHANNELS 3 Xrotation Yrotation Zrotation
										JOINT RightHandThumb3
										{
											OFFSET -3.252098 -1.877594 1.877601
											CHANNELS 3 Xrotation Yrotation Zrotation
											JOINT RightHandThumb4
											{
												OFFSET -5.251778 -3.032120 3.032117
												CHANNELS 3 Xrotation Yrotation Zrotation
												End Site
												{
													OFFSET -0.000023 6.780014 0.000000
												}
											}
										}
									}
								}
								JOINT RightHandIndex1
								{
									OFFSET -16.029404 0.000000 0.000000
									CHANNELS 3 Xrotation Yrotation Zrotation
									JOINT RightHandIndex2
									{
										OFFSET -5.213303 0.000000 0.000000
										CHANNELS 3 Xrotation Yrotation Zrotation
										JOINT RightHandIndex3
										{
											OFFSET -6.386528 0.000000 0.000000
											CHANNELS 3 Xrotation Yrotation Zrotation
											JOINT RightHandIndex4
											{
												OFFSET -5.189026 0.000000 0.000000
												CHANNELS 3 Xrotation Yrotation Zrotation
												End Site
												{
													OFFSET 0.236702 5.183624 0.001972
												}
											}
										}
									}
								}
							}
						}
					}
				}
			}
		}
	}
	JOINT LeftUpLeg
	{
		OFFSET 14.073000 -7.904099 -1.463000
		CHANNELS 3 Xrotation Yrotation Zrotation
		JOINT LeftLeg
		{
			OFFSET -0.109806 -34.073280 4.093200
			CHANNELS 3 Xrotation Yrotation Zrotation
			JOINT LeftFoot
			{
				OFFSET 0.109806 -29.899420 -6.319000
				CHANNELS 3 Xrotation Yrotation Zrotation
				JOINT LeftToeBase
				{
					OFFSET 1.551100 -14.988700 20.535801
					CHANNELS 3 Xrotation Yrotation Zrotation
					JOINT LeftToe_End
					{
						OFFSET 0.221200 0.570800 13.248301
						CHANNELS 3 Xrotation Yrotation Zrotation
						End Site
						{
							OFFSET 0.000000 13.262435 0.000000
						}
					}
				}
			}
		}
	}
	JOINT RightUpLeg
	{
		OFFSET -13.839300 -7.904099 -1.463000
		CHANNELS 3 Xrotation Yrotation Zrotation
		JOINT RightLeg
		{
			OFFSET 0.109694 -34.073219 4.093300
			CHANNELS 3 Xrotation Yrotation Zrotation
			JOINT RightFoot
			{
				OFFSET -0.109694 -29.899384 -6.319200
				CHANNELS 3 Xrotation Yrotation Zrotation
				JOINT RightToeBase
				{
					OFFSET -1.551100 -14.988700 20.535801
					CHANNELS 3 Xrotation Yrotation Zrotation
					JOINT RightToe_End
					{
						OFFSET -0.221200 0.570900 13.248299
						CHANNELS 3 Xrotation Yrotation Zrotation
						End Site
						{
							OFFSET 0.000000 13.262440 0.000000
						}
					}
				}
			}
		}
	}
}
MOTION
Frames: 6
Frame Time: 0.033333
2.101552 85.704224 3.961473 2.622450 8.683205 -0.375527 1.822225 0.583185 -0.389472 2.750504 1.188919 -0.197074 2.750529 1.191029 -0.179569 27.577650 -1.996698 4.451303 -5.881468 -13.136770 13.675406 -0.000003 -0.000000 0.000001 0.878895 -0.225208 -19.949828 12.269581 -43.539635 -57.990492 46.798366 -59.771614 47.789430 -10.232642 5.395800 30.867974 -0.056583 2.065857 -4.419644 0.346135 1.985635 -19.774634 1.324818 3.711712 -39.274964 -0.000001 0.000001 -0.000001 -21.585191 -20.244812 26.862127 -22.770529 49.239903 9.940332 -6.252397 6.799318 14.973880 -0.000003 -0.000001 -0.000000 0.889874 1.791819 30.246007 -9.477498 -7.608950 49.357279 -108.510334 58.489697 111.361105 -6.761701 11.005704 21.433579 -15.735270 7.805883 -15.664306 9.796815 -23.841887 -7.026859 -1.111625 -14.058465 -15.954502 0.000002 0.000002 -0.000001 0.198739 -3.199686 17.665466 0.378263 -1.840152 23.228136 0.195697 -1.337282 16.652213 0.000001 0.000002 -0.000002 -20.646989 13.228051 6.620122 21.512514 -0.611346 3.218544 -3.914117 0.611074 -3.848363 -0.047623 0.002471 -1.016422 -0.000000 0.000004 0.000000 -9.232309 2.373071 -3.287244 22.894157 -9.738085 0.098693 -14.481413 1.821055 5.801773 -1.695991 0.213764 0.257617 -0.000000 -0.000000 -0.000000 
2.091780 85.702469 3.959210 2.611455 8.683129 -0.370886 1.905812 0.585201 -0.392766 2.800841 1.194479 -0.194658 2.800904 1.196737 -0.176024 27.313913 -2.085816 4.387158 -5.984742 -13.293123 13.267658 -0.000002 0.000001 0.000000 0.877407 -0.256108 -19.995464 12.350033 -43.505870 -57.907642 47.149113 -59.869156 48.197476 -10.218174 5.506874 30.793102 -0.056556 2.065846 -4.419638 0.346137 1.985667 -19.774615 1.324832 3.711689 -39.274957 -0.000001 -0.000002 -0.000002 -21.585186 -20.244816 26.862130 -22.770500 49.239892 9.940324 -6.252412 6.799315 14.973894 -0.000001 0.000002 -0.000001 0.885477 1.812639 30.204548 -9.513300 -7.651393 49.344941 -108.793821 58.451448 111.700367 -6.723816 10.917118 21.280332 -15.727089 7.824048 -15.659860 9.774981 -23.782311 -6.997428 -1.139303 -14.004217 -15.950315 -0.000001 -0.000002 -0.000001 0.198656 -3.199979 17.638977 0.376157 -1.835340 23.163449 0.194936 -1.334675 16.618981 -0.000000 -0.000002 -0.000000 -20.650660 13.216505 6.631277 21.537074 -0.608852 3.197769 -3.922872 0.611089 -3.819288 -0.045306 -0.007768 -1.022122 -0.000000 0.000000 -0.000000 -9.231112 2.382645 -3.276661 22.911851 -9.749963 0.093792 -14.494462 1.826733 5.790733 -1.694475 0.216640 0.265921 -0.000000 -0.000000 -0.000000 
2.079873 85.697922 3.957240 2.606451 8.700810 -0.362955 1.995385 0.587061 -0.396157 2.858618 1.199666 -0.199708 2.858700 1.202103 -0.179896 27.020829 -2.198447 4.320101 -6.184539 -13.468376 12.778749 -0.000003 -0.000001 -0.000000 0.875213 -0.287343 -20.017935 12.390655 -43.496168 -57.860759 47.503085 -59.957286 48.627351 -10.205070 5.636477 30.692876 -0.056551 2.065859 -4.419610 0.346124 1.985639 -19.774649 1.324828 3.711690 -39.274947 -0.000000 -0.000000 0.000001 -21.585180 -20.244821 26.862135 -22.770546 49.239899 9.940355 -6.252404 6.799324 14.973863 -0.000004 -0.000001 0.000000 0.879333 1.843995 30.172921 -9.571599 -7.687595 49.299937 -109.070799 58.390987 112.043646 -6.684296 10.828312 21.099356 -15.719076 7.841801 -15.655504 9.753597 -23.723955 -6.968632 -1.166398 -13.951099 -15.946161 0.000001 0.000002 0.000000 0.198555 -3.200256 17.613087 0.374142 -1.830606 23.100291 0.194188 -1.332148 16.586546 0.000002 0.000001 -0.000001 -20.665808 13.203928 6.636614 21.563713 -0.619837 3.176930 -3.927439 0.611173 -3.790419 -0.042826 -0.005002 -1.018266 0.000000 -0.000001 -0.000000 -9.236952 2.385725 -3.271574 22.942155 -9.769751 0.090343 -14.519053 1.830541 5.785558 -1.688758 0.200382 0.270785 0.000000 -0.000000 0.000000 
2.072091 85.692314 3.956130 2.625869 8.716932 -0.366132 2.085015 0.594870 -0.407360 2.911383 1.217105 -0.214033 2.911509 1.219706 -0.192984 26.710573 -2.335064 4.255751 -6.379815 -13.636491 12.184335 -0.000001 0.000000 0.000000 0.871079 -0.327286 -19.998961 12.445031 -43.549074 -57.804390 47.864562 -60.057307 49.068680 -10.204456 5.819451 30.632234 -0.056558 2.065850 -4.419643 0.346129 1.985654 -19.774629 1.324810 3.711709 -39.274967 -0.000000 -0.000001 -0.000001 -21.585189 -20.244817 26.862127 -22.770534 49.239896 9.940352 -6.252406 6.799313 14.973887 -0.000004 0.000002 0.000001 0.869016 1.901043 30.173091 -9.643033 -7.790503 49.217127 -109.327116 58.266390 112.360812 -6.651164 10.737647 20.946735 -15.711242 7.859201 -15.651261 9.732681 -23.666897 -6.940412 -1.192891 -13.899178 -15.942070 0.000003 -0.000000 0.000000 0.198451 -3.200539 17.587814 0.372184 -1.825984 23.038611 0.193441 -1.329677 16.554859 0.000000 -0.000001 -0.000000 -20.712767 13.191460 6.651797 21.599917 -0.631115 3.150605 -3.936002 0.611013 -3.758285 -0.034680 -0.015497 -1.025462 0.000000 -0.000001 -0.000000 -9.265046 2.393481 -3.263376 22.964585 -9.790566 0.092272 -14.537282 1.834097 5.779675 -1.682176 0.192437 0.275310 -0.000000 -0.000000 -0.000000 
2.059452 85.690201 3.951677 2.642807 8.739659 -0.355352 2.173518 0.595425 -0.408389 2.957559 1.220225 -0.209534 2.957719 1.223034 -0.187197 26.404125 -2.491567 4.122511 -6.581844 -13.717512 11.436505 -0.000003 0.000000 -0.000000 0.869080 -0.368358 -20.062021 12.541512 -43.532480 -57.679657 48.247848 -60.175660 49.536971 -10.195563 6.003947 30.520219 -0.056542 2.065865 -4.419621 0.346120 1.985651 -19.774639 1.324826 3.711704 -39.274950 -0.000003 0.000001 -0.000004 -21.585167 -20.244809 26.862123 -22.770532 49.239862 9.940347 -6.252400 6.799320 14.973878 -0.000004 -0.000002 -0.000002 0.855519 1.969891 30.096061 -9.693492 -7.896460 49.176874 -109.630185 58.221905 112.783116 -6.609023 10.649171 20.687337 -15.703609 7.876142 -15.647091 9.712275 -23.611168 -6.912858 -1.218757 -13.848457 -15.938040 0.000001 -0.000000 -0.000001 0.198383 -3.200813 17.563109 0.370251 -1.821477 22.978320 0.192730 -1.327258 16.523882 0.000000 -0.000002 -0.000001 -20.740575 13.184207 6.645210 21.598612 -0.646561 3.132989 -3.920374 0.611067 -3.729639 -0.030350 -0.017384 -1.024423 0.000000 0.000000 0.000000 -9.294791 2.404502 -3.263751 22.992322 -9.821925 0.088360 -14.554597 1.838806 5.776002 -1.678516 0.177925 0.281415 -0.000000 -0.000000 -0.000000 
2.048139 85.686440 3.950347 2.654444 8.764088 -0.345109 2.260816 0.589350 -0.401998 2.998485 1.209809 -0.197804 2.998652 1.212847 -0.174149 26.093729 -2.646477 3.961888 -6.783667 -13.627064 10.573100 -0.000001 -0.000001 -0.000000 0.867951 -0.400325 -20.128024 12.628157 -43.489269 -57.587442 48.574745 -60.297067 49.956427 -10.178817 6.149633 30.402156 -0.056570 2.065859 -4.419626 0.346144 1.985659 -19.774622 1.324814 3.711695 -39.274954 0.000001 0.000001 0.000002 -21.585177 -20.244805 26.862125 -22.770558 49.239899 9.940358 -6.252385 6.799309 14.973904 0.000000 0.000001 0.000000 0.841083 2.038785 29.937194 -9.713669 -7.974315 49.258242 -109.951743 58.247068 113.199498 -6.568830 10.547970 20.445340 -15.696144 7.892704 -15.643063 9.692353 -23.556841 -6.885958 -1.243983 -13.798999 -15.934070 0.000000 0.000000 0.000000 0.198290 -3.201063 17.538961 0.368382 -1.817066 22.919379 0.192016 -1.324892 16.493602 0.000001 0.000002 -0.000001 -20.767018 13.168887 6.640216 21.612228 -0.657118 3.113512 -3.915524 0.610339 -3.698435 -0.026679 -0.024960 -1.032276 -0.000000 0.000002 0.000000 -9.321694 2.403521 -3.267338 23.032023 -9.841103 0.090663 -14.579151 1.843696 5.766513 -1.681139 0.188602 0.288525 -0.000000 0.000000 0.000000 
